<svg xmlns="http://www.w3.org/2000/svg" width="571" height="446" viewBox="0 0 571 446" version="1.1"><path d="M 283.036 3.750 C 282.421 5.813, 281.436 9.300, 280.847 11.500 C 273.199 40.071, 258.796 73.963, 244.787 96.353 C 227.174 124.504, 202.992 147.290, 178.967 158.375 C 160.061 167.097, 145.544 170, 120.834 170 C 111.115 170, 102.452 169.727, 101.582 169.393 C 100.564 169.003, 100 167.561, 100 165.353 C 100 153.156, 85.518 144.124, 75.346 149.977 C 62.753 157.223, 62.319 171.611, 74.454 179.561 C 77.406 181.496, 79.226 174.691, 53.874 256.500 C 51.147 265.300, 47.776 276.325, 46.383 281 C 44.990 285.675, 43.456 290.400, 42.974 291.500 C 42.491 292.600, 40.759 298, 39.124 303.500 C 37.489 309, 35.148 316.762, 33.921 320.750 L 31.690 328 15.718 328 L -0.254 328 0.224 332.976 C 1.205 343.191, 9.986 355.977, 21.500 363.958 C 40.952 377.442, 73.058 383.792, 100.500 379.584 C 118.308 376.853, 129.506 373.008, 141.599 365.471 C 148.125 361.403, 161 349.050, 161 346.855 C 161 346.385, 176.075 346, 194.500 346 L 228 346 228 395.500 C 228 422.725, 228.353 445, 228.784 445 C 229.216 445, 230.377 443.632, 231.364 441.961 C 233.718 437.975, 246.070 421.703, 247.436 420.787 C 248.156 420.304, 248.500 408.089, 248.500 383.037 L 248.500 346 261.750 346 L 275 346 275 369.500 C 275 382.425, 275.267 393, 275.594 393 C 276.449 393, 293.357 380.797, 294.235 379.547 C 294.639 378.971, 294.976 371.188, 294.985 362.250 L 295 346 308.302 346 L 321.605 346 321.544 355.090 C 321.511 360.090, 321.736 364.337, 322.045 364.528 C 322.354 364.719, 326.858 363.170, 332.053 361.087 L 341.500 357.299 341.800 351.649 L 342.100 346 375.550 346 C 393.947 346, 409 346.373, 409 346.830 C 409 348.661, 420.631 360.354, 426.243 364.165 C 447.179 378.383, 478.717 384.113, 508.151 379.047 C 521.311 376.781, 528.300 374.531, 539.733 368.877 C 548.978 364.306, 560.527 354.369, 564.526 347.546 C 567.388 342.662, 569.974 334.714, 569.989 330.750 L 570 328 554.078 328 L 538.155 328 537.155 324.750 C 536.604 322.963, 534.584 316.550, 532.665 310.500 C 530.746 304.450, 526.852 291.850, 524.011 282.500 C 521.171 273.150, 516.669 258.525, 514.009 250 C 511.348 241.475, 507.305 228.425, 505.025 221 C 502.744 213.575, 500.490 206.375, 500.015 205 C 499.540 203.625, 497.739 197.917, 496.012 192.315 L 492.872 182.130 497.852 177.315 C 505.375 170.041, 506.058 162.165, 499.821 154.600 C 489.903 142.567, 471.933 148.246, 470.209 163.959 C 469.935 166.457, 469.214 168.831, 468.605 169.235 C 466.461 170.660, 430.896 170.075, 422.500 168.476 C 383.736 161.095, 352.558 138.463, 326.787 99 C 311.937 76.261, 297.677 43.342, 288.972 11.708 C 287.200 5.268, 285.392 -0, 284.953 -0 C 284.514 -0, 283.652 1.688, 283.036 3.750 M 295 171.816 L 295 224.631 302.359 243.066 C 306.407 253.204, 310.069 262.625, 310.497 264 C 310.925 265.375, 312.270 268.750, 313.485 271.500 C 314.701 274.250, 316.776 279.200, 318.097 282.500 L 320.500 288.500 321.211 261.500 C 321.602 246.650, 321.827 215.105, 321.711 191.401 L 321.500 148.301 311.114 137.424 C 305.402 131.441, 299.605 124.849, 298.231 122.773 C 296.858 120.698, 295.569 119, 295.367 119 C 295.165 119, 295 142.767, 295 171.816 M 270.551 124.592 C 268.379 127.291, 262.529 133.693, 257.551 138.817 L 248.500 148.134 248.844 216.817 C 249.033 254.593, 249.265 285.582, 249.360 285.683 C 249.514 285.846, 253.864 275.389, 270.163 235.669 L 275.018 223.839 274.759 171.761 L 274.500 119.683 270.551 124.592 M 218.500 166.521 C 207.142 172.004, 193.600 176.381, 179.500 179.126 C 170.601 180.859, 164.967 181.258, 150 181.217 C 130.960 181.165, 124.509 180.293, 105.297 175.173 L 98.094 173.253 93.461 177.692 L 88.828 182.131 94.829 201.815 C 98.129 212.642, 104.273 232.525, 108.481 246 C 112.689 259.475, 117.934 276.350, 120.136 283.500 C 122.338 290.650, 126.386 303.587, 129.132 312.250 L 134.125 328 181.062 328 L 228 328 228 245 C 228 199.350, 227.887 162.040, 227.750 162.088 C 227.613 162.136, 223.450 164.131, 218.500 166.521 M 342 244.986 L 342 328 388.922 328 L 435.845 328 436.845 324.750 C 437.396 322.962, 439.400 316.550, 441.300 310.500 C 443.199 304.450, 446.417 294.100, 448.450 287.500 C 452.150 275.488, 459.642 251.471, 467.010 228 C 472.991 208.950, 481.048 181.704, 480.758 181.512 C 480.616 181.418, 478.423 179.463, 475.885 177.167 L 471.269 172.994 466.885 174.541 C 464.473 175.392, 456.875 177.240, 450 178.648 C 439.101 180.879, 435.066 181.201, 418.500 181.165 C 400.920 181.126, 398.453 180.888, 385.500 177.980 C 371.641 174.870, 358.875 170.431, 347.750 164.854 L 342 161.971 342 244.986 M 80.478 197.222 C 79.452 200.675, 78.071 205.300, 77.410 207.500 C 75.835 212.737, 64.540 249.250, 61.324 259.500 C 59.943 263.900, 58.456 268.850, 58.018 270.500 C 57.581 272.150, 55.850 277.775, 54.173 283 C 52.495 288.225, 49.291 298.575, 47.054 306 C 44.816 313.425, 42.539 320.882, 41.993 322.571 C 41.447 324.260, 41 326.173, 41 326.821 C 41 327.708, 51.416 328, 83 328 C 106.100 328, 124.995 327.887, 124.988 327.750 C 124.947 326.874, 121.558 315.346, 117.567 302.500 C 111.707 283.644, 107.638 270.420, 100.488 247 C 97.381 236.825, 93.344 223.775, 91.515 218 C 89.687 212.225, 87.177 204.125, 85.937 200 C 84.697 195.875, 83.382 192.150, 83.013 191.722 C 82.645 191.294, 81.504 193.769, 80.478 197.222 M 486.612 192 C 485.794 193.998, 478.635 216.758, 474.502 230.500 C 471.485 240.531, 467.069 254.797, 452.835 300.500 C 450.094 309.300, 447.420 318.246, 446.892 320.380 C 446.364 322.513, 445.481 325.101, 444.931 326.130 C 443.960 327.943, 445.221 328, 486.465 328 C 509.859 328, 529 327.711, 529 327.358 C 529 326.429, 525.333 314.011, 521.808 303 C 520.135 297.775, 518.183 291.475, 517.470 289 C 516.115 284.295, 507.358 255.812, 498.870 228.500 C 493.586 211.498, 492.304 207.326, 489.188 197 C 488.001 193.067, 486.984 191.092, 486.612 192 M 277 267.221 C 264.641 288.867, 263.901 290.234, 264.312 290.646 C 264.530 290.863, 274.004 290.920, 285.365 290.771 L 306.022 290.500 296.410 273.500 C 291.124 264.150, 286.282 255.957, 285.650 255.292 C 284.770 254.368, 282.741 257.166, 277 267.221 M 248.249 317.853 C 245.362 322.803, 243 327.111, 243 327.427 C 243 327.742, 261.932 328, 285.070 328 L 327.140 328 322.930 320.250 C 320.615 315.988, 318.093 311.825, 317.326 311 C 316.157 309.743, 310.884 309.448, 284.715 309.177 L 253.499 308.853 248.249 317.853" stroke="none" fill="#c4913e" fill-rule="evenodd"/></svg>